<?xml version="1.0" encoding="UTF-8" standalone="no"?>
<!-- Created with Inkscape (http://www.inkscape.org/) -->

<svg
   xmlns:dc="http://purl.org/dc/elements/1.1/"
   xmlns:cc="http://creativecommons.org/ns#"
   xmlns:rdf="http://www.w3.org/1999/02/22-rdf-syntax-ns#"
   xmlns:svg="http://www.w3.org/2000/svg"
   xmlns="http://www.w3.org/2000/svg"
   xmlns:sodipodi="http://sodipodi.sourceforge.net/DTD/sodipodi-0.dtd"
   xmlns:inkscape="http://www.inkscape.org/namespaces/inkscape"
   inkscape:version="0.48.4 r9939"
   version="1.1"
   id="svg2"
   height="297mm"
   width="210mm"
   sodipodi:docname="Neues Dokument 1">
  <sodipodi:namedview
     id="base"
     pagecolor="#ffffff"
     bordercolor="#666666"
     borderopacity="1.0"
     inkscape:pageopacity="0.0"
     inkscape:pageshadow="2"
     inkscape:zoom="0.7"
     inkscape:cx="337.38418"
     inkscape:cy="628.57143"
     inkscape:document-units="px"
     inkscape:current-layer="layer1"
     showgrid="false"
     inkscape:window-width="1024"
     inkscape:window-height="719"
     inkscape:window-x="0"
     inkscape:window-y="0"
     inkscape:window-maximized="1" />
  <defs
     id="defs4">
    <inkscape:perspective
       id="perspective2985"
       inkscape:persp3d-origin="372.04724 : 350.78739 : 1"
       inkscape:vp_z="744.09448 : 526.18109 : 1"
       inkscape:vp_y="0 : 1000 : 0"
       inkscape:vp_x="0 : 521.89538 : 1"
       sodipodi:type="inkscape:persp3d" />
  </defs>
  <metadata
     id="metadata7">
    <rdf:RDF>
      <cc:Work
         rdf:about="">
        <dc:format>image/svg+xml</dc:format>
        <dc:type
           rdf:resource="http://purl.org/dc/dcmitype/StillImage" />
        <dc:title></dc:title>
      </cc:Work>
    </rdf:RDF>
  </metadata>
  <g
     id="layer1"
     inkscape:groupmode="layer"
     inkscape:label="Ebene 1">
    <path
       d="m 365.40205,386.66216 205.48356,-80.86843 0,163.65222 -205.48356,21.96374 z"
       style="color:#000000;fill:#e9e9ff;fill-opacity:1;fill-rule:evenodd;stroke:none;stroke-width:1.70787406;marker:none;visibility:visible"
       id="path3288"
       inkscape:connector-curvature="0" />
    <path
       d="m 288.01858,358.15232 0,126.15204 77.38347,7.10533 0,-104.74753 z"
       style="color:#000000;fill:#353564;fill-opacity:1;fill-rule:evenodd;stroke:none;stroke-width:1.70787406;marker:none;visibility:visible"
       id="path3290"
       inkscape:connector-curvature="0" />
    <path
       d="M 288.01858,358.15232 508.4081,226.29865 570.88561,305.79373 365.40205,386.66216 z"
       style="color:#000000;fill:#4d4d9f;fill-opacity:1;fill-rule:evenodd;stroke:none;stroke-width:1.70787406;marker:none;visibility:visible"
       id="path3292"
       inkscape:connector-curvature="0" />
    <path
       d="m 288.01858,484.30436 220.38952,-35.32313 62.47751,20.46472 -205.48356,21.96374 z"
       style="color:#000000;fill:#afafde;fill-opacity:1;fill-rule:evenodd;stroke:none;stroke-width:1.70787406;marker:none;visibility:visible"
       id="path3294"
       inkscape:connector-curvature="0" />
    <path
       d="m 508.4081,226.29865 0,222.68258 62.47751,20.46472 0,-163.65222 z"
       style="color:#000000;fill:#d7d7ff;fill-opacity:1;fill-rule:evenodd;stroke:none;stroke-width:1.70787406;marker:none;visibility:visible"
       id="path3296"
       inkscape:connector-curvature="0" />
    <path
       d="m 288.01858,358.15232 220.38952,-131.85367 0,222.68258 -220.38952,35.32313 z"
       style="color:#000000;fill:#8686bf;fill-opacity:1;fill-rule:evenodd;stroke:none;stroke-width:1.70787406;marker:none;visibility:visible"
       id="path3298"
       inkscape:connector-curvature="0" />
    <g
       id="text3015"
       style="font-size:24px;font-style:normal;font-variant:normal;font-weight:normal;font-stretch:normal;text-align:center;line-height:70.99999784999999974%;letter-spacing:0px;word-spacing:0px;text-anchor:middle;fill:#ffffff;fill-opacity:1;stroke:none;font-family:Droid Sans;-inkscape-font-specification:Droid Sans"
       transform="matrix(0,-1,1,0,0,0)">
      <path
         id="path3258"
         style="font-size:40px;text-align:start;line-height:70.99999784999999974%;text-anchor:start;font-family:Joystix;-inkscape-font-specification:Joystix;fill:#ffffff"
         d="M-411.287879341 305.306453385C-411.287879341 305.306453385 -416.191776365 292.743901478 -416.191776365 292.743901478C-416.191776365 292.743901478 -407.390677369 292.743901478 -407.390677369 292.743901478C-407.390677369 292.743901478 -408.397387434 290.349381578 -408.397387434 290.349381578C-408.397387434 290.349381578 -399.852060036 290.349381578 -399.852060036 290.349381578C-399.852060036 290.349381578 -400.900579748 288.01858 -400.900579748 288.01858C-400.900579748 288.01858 -375.19692012 288.01858 -375.19692012 288.01858C-375.19692012 288.01858 -373.94039253 290.349381578 -373.94039253 290.349381578C-373.94039253 290.349381578 -365.395065133 290.349381578 -365.395065133 290.349381578C-365.395065133 290.349381578 -364.033713631 292.743901478 -364.033713631 292.743901478C-364.033713631 292.743901478 -355.325275507 292.743901478 -355.325275507 292.743901478C-355.325275507 292.743901478 -347.809407359 305.306453385 -347.809407359 305.306453385C-347.809407359 305.306453385 -356.891551686 305.306453385 -356.891551686 305.306453385C-356.891551686 305.306453385 -362.649724995 295.178238476 -362.649724995 295.178238476C-362.649724995 295.178238476 -371.337171398 295.178238476 -371.337171398 295.178238476C-371.337171398 295.178238476 -372.649514598 292.743901478 -372.649514598 292.743901478C-372.649514598 292.743901478 -398.774876401 292.743901478 -398.774876401 292.743901478C-398.774876401 292.743901478 -397.679780898 295.178238476 -397.679780898 295.178238476C-397.679780898 295.178238476 -406.367227301 295.178238476 -406.367227301 295.178238476C-406.367227301 295.178238476 -404.279748178 300.143432006 -404.279748178 300.143432006C-404.279748178 300.143432006 -386.517589251 300.143432006 -386.517589251 300.143432006C-386.517589251 300.143432006 -387.711808462 297.653407635 -387.711808462 297.653407635C-387.711808462 297.653407635 -378.951514886 297.653407635 -378.951514886 297.653407635C-378.951514886 297.653407635 -375.055865072 305.306453385 -375.055865072 305.306453385C-375.055865072 305.306453385 -411.287879341 305.306453385 -411.287879341 305.306453385" />
      <path
         id="path3260"
         style="font-size:40px;text-align:start;line-height:70.99999784999999974%;text-anchor:start;font-family:Joystix;-inkscape-font-specification:Joystix;fill:#ffffff"
         d="M-402.820198826 326.998523076C-402.820198826 326.998523076 -410.530670008 307.246233423 -410.530670008 307.246233423C-410.530670008 307.246233423 -346.648884314 307.246233423 -346.648884314 307.246233423C-346.648884314 307.246233423 -334.831571577 326.998523076 -334.831571577 326.998523076C-334.831571577 326.998523076 -344.559003664 326.998523076 -344.559003664 326.998523076C-344.559003664 326.998523076 -352.728240582 312.629419771 -352.728240582 312.629419771C-352.728240582 312.629419771 -371.328236417 312.629419771 -371.328236417 312.629419771C-371.328236417 312.629419771 -365.533263414 324.013706252 -365.533263414 324.013706252C-365.533263414 324.013706252 -375.069371952 324.013706252 -375.069371952 324.013706252C-375.069371952 324.013706252 -380.529291855 312.629419771 -380.529291855 312.629419771C-380.529291855 312.629419771 -399.030357874 312.629419771 -399.030357874 312.629419771C-399.030357874 312.629419771 -392.989263409 326.998523076 -392.989263409 326.998523076C-392.989263409 326.998523076 -402.820198826 326.998523076 -402.820198826 326.998523076" />
      <path
         id="path3262"
         style="font-size:40px;text-align:start;line-height:70.99999784999999974%;text-anchor:start;font-family:Joystix;-inkscape-font-specification:Joystix;fill:#ffffff"
         d="M-392.664713489 353.014324603C-392.664713489 353.014324603 -395.352123698 346.129854952 -395.352123698 346.129854952C-395.352123698 346.129854952 -384.94602086 346.129854952 -384.94602086 346.129854952C-384.94602086 346.129854952 -386.336480284 342.822564324 -386.336480284 342.822564324C-386.336480284 342.822564324 -376.246804668 342.822564324 -376.246804668 342.822564324C-376.246804668 342.822564324 -377.721982594 339.54332503 -377.721982594 339.54332503C-377.721982594 339.54332503 -367.621344815 339.54332503 -367.621344815 339.54332503C-367.621344815 339.54332503 -369.164274273 336.326217219 -369.164274273 336.326217219C-369.164274273 336.326217219 -399.179055539 336.326217219 -399.179055539 336.326217219C-399.179055539 336.326217219 -401.607891499 330.104149815 -401.607891499 330.104149815C-401.607891499 330.104149815 -332.973550909 330.104149815 -332.973550909 330.104149815C-332.973550909 330.104149815 -329.251039865 336.326217219 -329.251039865 336.326217219C-329.251039865 336.326217219 -339.255948789 336.326217219 -339.255948789 336.326217219C-339.255948789 336.326217219 -337.426933064 339.54332503 -337.426933064 339.54332503C-337.426933064 339.54332503 -347.420096765 339.54332503 -347.420096765 339.54332503C-347.420096765 339.54332503 -345.652269471 342.822564324 -345.652269471 342.822564324C-345.652269471 342.822564324 -355.958941394 342.822564324 -355.958941394 342.822564324C-355.958941394 342.822564324 -354.275422631 346.129854952 -354.275422631 346.129854952C-354.275422631 346.129854952 -323.385762721 346.129854952 -323.385762721 346.129854952C-323.385762721 346.129854952 -319.266952582 353.014324603 -319.266952582 353.014324603C-319.266952582 353.014324603 -392.664713489 353.014324603 -392.664713489 353.014324603" />
      <path
         id="path3264"
         style="font-size:40px;text-align:start;line-height:70.99999784999999974%;text-anchor:start;font-family:Joystix;-inkscape-font-specification:Joystix;fill:#ffffff"
         d="M-380.822426565 383.351287933C-380.822426565 383.351287933 -391.310257036 356.484101686 -391.310257036 356.484101686C-391.310257036 356.484101686 -317.191069652 356.484101686 -317.191069652 356.484101686C-317.191069652 356.484101686 -301.117087962 383.351287933 -301.117087962 383.351287933C-301.117087962 383.351287933 -312.520881502 383.351287933 -312.520881502 383.351287933C-312.520881502 383.351287933 -323.664015606 363.751312232 -323.664015606 363.751312232C-323.664015606 363.751312232 -345.305526329 363.751312232 -345.305526329 363.751312232C-345.305526329 363.751312232 -337.413388621 379.25550122 -337.413388621 379.25550122C-337.413388621 379.25550122 -348.575328931 379.25550122 -348.575328931 379.25550122C-348.575328931 379.25550122 -356.011159904 363.751312232 -356.011159904 363.751312232C-356.011159904 363.751312232 -377.537563576 363.751312232 -377.537563576 363.751312232C-377.537563576 363.751312232 -369.297292614 383.351287933 -369.297292614 383.351287933C-369.297292614 383.351287933 -380.822426565 383.351287933 -380.822426565 383.351287933" />
      <path
         id="path3266"
         style="font-size:40px;text-align:start;line-height:70.99999784999999974%;text-anchor:start;font-family:Joystix;-inkscape-font-specification:Joystix;fill:#ffffff"
         d="M-366.671051006 419.603556108C-366.671051006 419.603556108 -372.261512243 405.28219921 -372.261512243 405.28219921C-372.261512243 405.28219921 -360.077043868 405.28219921 -360.077043868 405.28219921C-360.077043868 405.28219921 -362.00048602 400.707177391 -362.00048602 400.707177391C-362.00048602 400.707177391 -350.20719735 400.707177391 -350.20719735 400.707177391C-350.20719735 400.707177391 -352.219346481 396.234280683 -352.219346481 396.234280683C-352.219346481 396.234280683 -375.793442783 396.234280683 -375.793442783 396.234280683C-375.793442783 396.234280683 -379.153541587 387.626551885 -379.153541587 387.626551885C-379.153541587 387.626551885 -298.5593019 387.626551885 -298.5593019 387.626551885C-298.5593019 387.626551885 -282.361054785 414.701444125 -282.361054785 414.701444125C-282.361054785 414.701444125 -294.697441314 414.701444125 -294.697441314 414.701444125C-294.697441314 414.701444125 -291.910453613 419.603556108 -291.910453613 419.603556108C-291.910453613 419.603556108 -329.224344723 419.603556108 -329.224344723 419.603556108C-329.224344723 419.603556108 -333.872171391 409.912536597 -333.872171391 409.912536597C-333.872171391 409.912536597 -346.066132459 409.912536597 -346.066132459 409.912536597C-346.066132459 409.912536597 -343.911824692 414.701444125 -343.911824692 414.701444125C-343.911824692 414.701444125 -356.116981287 414.701444125 -356.116981287 414.701444125C-356.116981287 414.701444125 -354.056023067 419.603556108 -354.056023067 419.603556108C-354.056023067 419.603556108 -366.671051006 419.603556108 -366.671051006 419.603556108M-321.807958044 409.912536597C-321.807958044 409.912536597 -297.420069118 409.912536597 -297.420069118 409.912536597C-297.420069118 409.912536597 -305.19653998 396.234280683 -305.19653998 396.234280683C-305.19653998 396.234280683 -340.432282279 396.234280683 -340.432282279 396.234280683C-340.432282279 396.234280683 -336.092887753 405.28219921 -336.092887753 405.28219921C-336.092887753 405.28219921 -324.164950745 405.28219921 -324.164950745 405.28219921C-324.164950745 405.28219921 -321.807958044 409.912536597 -321.807958044 409.912536597" />
      <path
         id="path3268"
         style="font-size:40px;text-align:start;line-height:70.99999784999999974%;text-anchor:start;font-family:Joystix;-inkscape-font-specification:Joystix;fill:#ffffff"
         d="M-270.852884245 456.642314155C-270.852884245 456.642314155 -277.668394897 444.654318505 -277.668394897 444.654318505C-277.668394897 444.654318505 -343.524118686 444.654318505 -343.524118686 444.654318505C-343.524118686 444.654318505 -338.746475721 456.018227101 -338.746475721 456.018227101C-338.746475721 456.018227101 -352.456280152 456.018227101 -352.456280152 456.018227101C-352.456280152 456.018227101 -365.153468522 423.49122109 -365.153468522 423.49122109C-365.153468522 423.49122109 -352.421561201 423.49122109 -352.421561201 423.49122109C-352.421561201 423.49122109 -348.093145751 433.786615263 -348.093145751 433.786615263C-348.093145751 433.786615263 -283.846987996 433.786615263 -283.846987996 433.786615263C-283.846987996 433.786615263 -289.700207391 423.49122109 -289.700207391 423.49122109C-289.700207391 423.49122109 -277.102345789 423.49122109 -277.102345789 423.49122109C-277.102345789 423.49122109 -257.268856043 456.642314155 -257.268856043 456.642314155C-257.268856043 456.642314155 -270.852884245 456.642314155 -270.852884245 456.642314155" />
      <path
         id="path3270"
         style="font-size:40px;text-align:start;line-height:70.99999784999999974%;text-anchor:start;font-family:Joystix;-inkscape-font-specification:Joystix;fill:#ffffff"
         d="M-316.720593906 508.4081C-316.720593906 508.4081 -319.73876937 501.229189739 -319.73876937 501.229189739C-319.73876937 501.229189739 -334.807803412 501.229189739 -334.807803412 501.229189739C-334.807803412 501.229189739 -345.241751741 474.500035999 -345.241751741 474.500035999C-345.241751741 474.500035999 -330.976307252 474.500035999 -330.976307252 474.500035999C-330.976307252 474.500035999 -333.607787307 468.240903819 -333.607787307 468.240903819C-333.607787307 468.240903819 -319.826900693 468.240903819 -319.826900693 468.240903819C-319.826900693 468.240903819 -322.540481332 462.208763495 -322.540481332 462.208763495C-322.540481332 462.208763495 -281.291555731 462.208763495 -281.291555731 462.208763495C-281.291555731 462.208763495 -278.039648397 468.240903819 -278.039648397 468.240903819C-278.039648397 468.240903819 -264.258761783 468.240903819 -264.258761783 468.240903819C-264.258761783 468.240903819 -260.700270165 474.500035999 -260.700270165 474.500035999C-260.700270165 474.500035999 -246.58501698 474.500035999 -246.58501698 474.500035999C-246.58501698 474.500035999 -230.593616768 501.229189739 -230.593616768 501.229189739C-230.593616768 501.229189739 -245.50399905 501.229189739 -245.50399905 501.229189739C-245.50399905 501.229189739 -241.422587881 508.4081 -241.422587881 508.4081C-241.422587881 508.4081 -256.385642884 508.4081 -256.385642884 508.4081C-256.385642884 508.4081 -264.018113915 494.250213087 -264.018113915 494.250213087C-264.018113915 494.250213087 -249.471742375 494.250213087 -249.471742375 494.250213087C-249.471742375 494.250213087 -257.045344437 480.928788879 -257.045344437 480.928788879C-257.045344437 480.928788879 -271.199650609 480.928788879 -271.199650609 480.928788879C-271.199650609 480.928788879 -274.665370489 474.500035999 -274.665370489 474.500035999C-274.665370489 474.500035999 -317.011206928 474.500035999 -317.011206928 474.500035999C-317.011206928 474.500035999 -314.119208663 480.928788879 -314.119208663 480.928788879C-314.119208663 480.928788879 -328.273514835 480.928788879 -328.273514835 480.928788879C-328.273514835 480.928788879 -322.672888245 494.250213087 -322.672888245 494.250213087C-322.672888245 494.250213087 -308.126516705 494.250213087 -308.126516705 494.250213087C-308.126516705 494.250213087 -301.757538903 508.4081 -301.757538903 508.4081C-301.757538903 508.4081 -316.720593906 508.4081 -316.720593906 508.4081" />
      <path
         id="path3272"
         style="font-size:40px;text-align:start;line-height:70.99999784999999974%;text-anchor:start;font-family:Joystix;-inkscape-font-specification:Joystix;fill:#ffffff"
         d="M-481.43033382 305.9503219C-481.43033382 305.9503219 -484.212530418 288.591526893 -484.212530418 288.591526893C-484.212530418 288.591526893 -424.209379825 288.591526893 -424.209379825 288.591526893C-424.209379825 288.591526893 -417.817990473 305.9503219 -417.817990473 305.9503219C-417.817990473 305.9503219 -426.919288365 305.9503219 -426.919288365 305.9503219C-426.919288365 305.9503219 -431.18860931 293.335821795 -431.18860931 293.335821795C-431.18860931 293.335821795 -448.64072578 293.335821795 -448.64072578 293.335821795C-448.64072578 293.335821795 -445.851216906 303.335847806 -445.851216906 303.335847806C-445.851216906 303.335847806 -454.77875146 303.335847806 -454.77875146 303.335847806C-454.77875146 303.335847806 -457.273947667 293.335821795 -457.273947667 293.335821795C-457.273947667 293.335821795 -474.633239671 293.335821795 -474.633239671 293.335821795C-474.633239671 293.335821795 -472.232194889 305.9503219 -472.232194889 305.9503219C-472.232194889 305.9503219 -481.43033382 305.9503219 -481.43033382 305.9503219" />
      <path
         id="path3274"
         style="font-size:40px;text-align:start;line-height:70.99999784999999974%;text-anchor:start;font-family:Joystix;-inkscape-font-specification:Joystix;fill:#ffffff"
         d="M-449.057959463 326.263130486C-449.057959463 326.263130486 -449.79939903 323.291654762 -449.79939903 323.291654762C-449.79939903 323.291654762 -459.416586745 323.291654762 -459.416586745 323.291654762C-459.416586745 323.291654762 -460.057841976 320.373824459 -460.057841976 320.373824459C-460.057841976 320.373824459 -469.486824461 320.373824459 -469.486824461 320.373824459C-469.486824461 320.373824459 -470.026519696 317.538398127 -470.026519696 317.538398127C-470.026519696 317.538398127 -479.573044404 317.538398127 -479.573044404 317.538398127C-479.573044404 317.538398127 -480.024278118 314.723042249 -480.024278118 314.723042249C-480.024278118 314.723042249 -470.562394719 314.723042249 -470.562394719 314.723042249C-470.562394719 314.723042249 -471.088852332 311.957163134 -471.088852332 311.957163134C-471.088852332 311.957163134 -461.907582207 311.957163134 -461.907582207 311.957163134C-461.907582207 311.957163134 -462.50485028 309.239482565 -462.50485028 309.239482565C-462.50485028 309.239482565 -453.305682586 309.239482565 -453.305682586 309.239482565C-453.305682586 309.239482565 -453.965054102 306.596911897 -453.965054102 306.596911897C-453.965054102 306.596911897 -417.579920468 306.596911897 -417.579920468 306.596911897C-417.579920468 306.596911897 -415.6063127 311.957163134 -415.6063127 311.957163134C-415.6063127 311.957163134 -443.4462996 311.957163134 -443.4462996 311.957163134C-443.4462996 311.957163134 -442.674757174 314.723042249 -442.674757174 314.723042249C-442.674757174 314.723042249 -451.937430413 314.723042249 -451.937430413 314.723042249C-451.937430413 314.723042249 -451.234945709 317.538398127 -451.234945709 317.538398127C-451.234945709 317.538398127 -441.889413196 317.538398127 -441.889413196 317.538398127C-441.889413196 317.538398127 -441.098470562 320.373824459 -441.098470562 320.373824459C-441.098470562 320.373824459 -412.507355685 320.373824459 -412.507355685 320.373824459C-412.507355685 320.373824459 -410.338953568 326.263130486 -410.338953568 326.263130486C-410.338953568 326.263130486 -449.057959463 326.263130486 -449.057959463 326.263130486" />
      <path
         id="path3276"
         style="font-size:40px;text-align:start;line-height:70.99999784999999974%;text-anchor:start;font-family:Joystix;-inkscape-font-specification:Joystix;fill:#ffffff"
         d="M-474.125537726 351.526704992C-474.125537726 351.526704992 -477.767600463 328.802997937 -477.767600463 328.802997937C-477.767600463 328.802997937 -409.403791781 328.802997937 -409.403791781 328.802997937C-409.403791781 328.802997937 -401.037078583 351.526704992 -401.037078583 351.526704992C-401.037078583 351.526704992 -411.494166061 351.526704992 -411.494166061 351.526704992C-411.494166061 351.526704992 -417.095795289 334.975653103 -417.095795289 334.975653103C-417.095795289 334.975653103 -437.025288099 334.975653103 -437.025288099 334.975653103C-437.025288099 334.975653103 -433.369920035 348.079671543 -433.369920035 348.079671543C-433.369920035 348.079671543 -443.614318574 348.079671543 -443.614318574 348.079671543C-443.614318574 348.079671543 -446.884019779 334.975653103 -446.884019779 334.975653103C-446.884019779 334.975653103 -466.707511433 334.975653103 -466.707511433 334.975653103C-466.707511433 334.975653103 -463.557183125 351.526704992 -463.557183125 351.526704992C-463.557183125 351.526704992 -474.125537726 351.526704992 -474.125537726 351.526704992" />
      <path
         id="path3278"
         style="font-size:40px;text-align:start;line-height:70.99999784999999974%;text-anchor:start;font-family:Joystix;-inkscape-font-specification:Joystix;fill:#ffffff"
         d="M-469.27790123 381.772277241C-469.27790123 381.772277241 -470.566368628 373.73321866 -470.566368628 373.73321866C-470.566368628 373.73321866 -459.330393849 373.73321866 -459.330393849 373.73321866C-459.330393849 373.73321866 -460.063753569 369.880326644 -460.063753569 369.880326644C-460.063753569 369.880326644 -449.177735805 369.880326644 -449.177735805 369.880326644C-449.177735805 369.880326644 -450.016036674 366.065902121 -450.016036674 366.065902121C-450.016036674 366.065902121 -439.126412816 366.065902121 -439.126412816 366.065902121C-439.126412816 366.065902121 -440.058756532 362.329337685 -440.058756532 362.329337685C-440.058756532 362.329337685 -472.394135983 362.329337685 -472.394135983 362.329337685C-472.394135983 362.329337685 -473.549896266 355.118270777 -473.549896266 355.118270777C-473.549896266 355.118270777 -399.714688676 355.118270777 -399.714688676 355.118270777C-399.714688676 355.118270777 -397.059623262 362.329337685 -397.059623262 362.329337685C-397.059623262 362.329337685 -407.83806351 362.329337685 -407.83806351 362.329337685C-407.83806351 362.329337685 -406.573440047 366.065902121 -406.573440047 366.065902121C-406.573440047 366.065902121 -417.347194757 366.065902121 -417.347194757 366.065902121C-417.347194757 366.065902121 -416.168482951 369.880326644 -416.168482951 369.880326644C-416.168482951 369.880326644 -427.288623768 369.880326644 -427.288623768 369.880326644C-427.288623768 369.880326644 -426.213858917 373.73321866 -426.213858917 373.73321866C-426.213858917 373.73321866 -392.860792445 373.73321866 -392.860792445 373.73321866C-392.860792445 373.73321866 -389.900866172 381.772277241 -389.900866172 381.772277241C-389.900866172 381.772277241 -469.27790123 381.772277241 -469.27790123 381.772277241" />
      <path
         id="path3280"
         style="font-size:40px;text-align:start;line-height:70.99999784999999974%;text-anchor:start;font-family:Joystix;-inkscape-font-specification:Joystix;fill:#ffffff"
         d="M-391.272043123 411.276715643C-391.272043123 411.276715643 -394.424486135 401.962238419 -394.424486135 401.962238419C-394.424486135 401.962238419 -466.041936909 401.962238419 -466.041936909 401.962238419C-466.041936909 401.962238419 -467.461278312 393.106625382 -467.461278312 393.106625382C-467.461278312 393.106625382 -397.421628622 393.106625382 -397.421628622 393.106625382C-397.421628622 393.106625382 -400.304561186 384.588466733 -400.304561186 384.588466733C-400.304561186 384.588466733 -388.863964502 384.588466733 -388.863964502 384.588466733C-388.863964502 384.588466733 -379.037534165 411.276715643 -379.037534165 411.276715643C-379.037534165 411.276715643 -391.272043123 411.276715643 -391.272043123 411.276715643" />
      <path
         id="path3282"
         style="font-size:40px;text-align:start;line-height:70.99999784999999974%;text-anchor:start;font-family:Joystix;-inkscape-font-specification:Joystix;fill:#ffffff"
         d="M-431.704830774 449.385287124C-431.704830774 449.385287124 -432.939508278 443.767275353 -432.939508278 443.767275353C-432.939508278 443.767275353 -459.341596738 443.767275353 -459.341596738 443.767275353C-459.341596738 443.767275353 -461.067565614 432.998539623 -461.067565614 432.998539623C-461.067565614 432.998539623 -435.306166856 432.998539623 -435.306166856 432.998539623C-435.306166856 432.998539623 -439.722078769 412.905320921 -439.722078769 412.905320921C-439.722078769 412.905320921 -415.286794653 412.905320921 -415.286794653 412.905320921C-415.286794653 412.905320921 -413.945826406 417.712517443 -413.945826406 417.712517443C-413.945826406 417.712517443 -401.387650955 417.712517443 -401.387650955 417.712517443C-401.387650955 417.712517443 -399.85061441 422.686515209 -399.85061441 422.686515209C-399.85061441 422.686515209 -387.410447669 422.686515209 -387.410447669 422.686515209C-387.410447669 422.686515209 -385.686450536 427.780384304 -385.686450536 427.780384304C-385.686450536 427.780384304 -372.960996474 427.780384304 -372.960996474 427.780384304C-372.960996474 427.780384304 -367.074732758 443.767275353 -367.074732758 443.767275353C-367.074732758 443.767275353 -419.738446072 443.767275353 -419.738446072 443.767275353C-419.738446072 443.767275353 -418.336645553 449.385287124 -418.336645553 449.385287124C-418.336645553 449.385287124 -431.704830774 449.385287124 -431.704830774 449.385287124M-422.425449937 432.998539623C-422.425449937 432.998539623 -396.66405118 432.998539623 -396.66405118 432.998539623C-396.66405118 432.998539623 -398.276535906 427.780384304 -398.276535906 427.780384304C-398.276535906 427.780384304 -411.137393316 427.780384304 -411.137393316 427.780384304C-411.137393316 427.780384304 -412.558328924 422.686515209 -412.558328924 422.686515209C-412.558328924 422.686515209 -424.998495665 422.686515209 -424.998495665 422.686515209C-424.998495665 422.686515209 -422.425449937 432.998539623 -422.425449937 432.998539623" />
      <path
         id="path3284"
         style="font-size:40px;text-align:start;line-height:70.99999784999999974%;text-anchor:start;font-family:Joystix;-inkscape-font-specification:Joystix;fill:#ffffff"
         d="M-451.191685805 494.61653357C-451.191685805 494.61653357 -458.21736299 450.781640612 -458.21736299 450.781640612C-458.21736299 450.781640612 -431.397952414 450.781640612 -431.397952414 450.781640612C-431.397952414 450.781640612 -430.137407538 456.51735373 -430.137407538 456.51735373C-430.137407538 456.51735373 -416.557059627 456.51735373 -416.557059627 456.51735373C-416.557059627 456.51735373 -415.073006499 462.465010211 -415.073006499 462.465010211C-415.073006499 462.465010211 -401.462111307 462.465010211 -401.462111307 462.465010211C-401.462111307 462.465010211 -398.010755167 474.837672476 -398.010755167 474.837672476C-398.010755167 474.837672476 -383.735159921 474.837672476 -383.735159921 474.837672476C-383.735159921 474.837672476 -381.745741369 481.275621827 -381.745741369 481.275621827C-381.745741369 481.275621827 -367.581227491 481.275621827 -367.581227491 481.275621827C-367.581227491 481.275621827 -373.947594567 462.465010211 -373.947594567 462.465010211C-373.947594567 462.465010211 -387.558489758 462.465010211 -387.558489758 462.465010211C-387.558489758 462.465010211 -391.16881829 450.781640612 -391.16881829 450.781640612C-391.16881829 450.781640612 -377.901778571 450.781640612 -377.901778571 450.781640612C-377.901778571 450.781640612 -375.960552209 456.51735373 -375.960552209 456.51735373C-375.960552209 456.51735373 -362.380241283 456.51735373 -362.380241283 456.51735373C-362.380241283 456.51735373 -350.855108312 487.81922093 -350.855108312 487.81922093C-350.855108312 487.81922093 -365.366575743 487.81922093 -365.366575743 487.81922093C-365.366575743 487.81922093 -363.066055787 494.61653357 -363.066055787 494.61653357C-363.066055787 494.61653357 -392.493438665 494.61653357 -392.493438665 494.61653357C-392.493438665 494.61653357 -394.389550125 487.81922093 -394.389550125 487.81922093C-394.389550125 487.81922093 -408.746649913 487.81922093 -408.746649913 487.81922093C-408.746649913 487.81922093 -410.379402032 481.275621827 -410.379402032 481.275621827C-410.379402032 481.275621827 -424.696251859 481.275621827 -424.696251859 481.275621827C-424.696251859 481.275621827 -427.488654504 468.569671586 -427.488654504 468.569671586C-427.488654504 468.569671586 -441.279217144 468.569671586 -441.279217144 468.569671586C-441.279217144 468.569671586 -436.321455716 494.61653357 -436.321455716 494.61653357C-436.321455716 494.61653357 -451.191685805 494.61653357 -451.191685805 494.61653357" />
    </g>
  </g>
</svg>
